<svg width="42" height="42" viewBox="0 0 42 42" fill="none" xmlns="http://www.w3.org/2000/svg">
<path d="M27.1538 41H4.07692C3.26086 41 2.47825 40.6757 1.90121 40.0987C1.32418 39.5218 1 38.739 1 37.923V4.07692C1 3.26086 1.32418 2.47824 1.90121 1.90121C2.47825 1.32418 3.26086 1 4.07692 1H37.9231C38.7391 1 39.5218 1.32418 40.0988 1.90121C40.6757 2.47824 41 3.26086 41 4.07692V27.1538L27.1538 41Z" stroke="black" stroke-linecap="round" stroke-linejoin="round"/>
<path d="M27.1538 28.6923V41L41 27.1539H28.6923C28.2842 27.1539 27.8929 27.316 27.6044 27.6045C27.3159 27.893 27.1538 28.2843 27.1538 28.6923Z" stroke="black" stroke-linecap="round" stroke-linejoin="round"/>
</svg>
