<svg width="40" height="41" viewBox="0 0 40 41" fill="none" xmlns="http://www.w3.org/2000/svg">
<path d="M12.0001 0.466675L10.6667 1.89525V6.2581C11.5529 6.15315 12.4472 6.15315 13.3334 6.2581V3.32382H37.3334V17.6095H32.7814L29.3334 21.3038V17.6095H23.9281C24.026 18.559 24.026 19.5172 23.9281 20.4667H26.6667V24.7524L28.9441 25.7638L33.8854 20.4667H38.6667L40.0001 19.0381V1.89525L38.6667 0.466675H12.0001Z" fill="black"/>
<path fill-rule="evenodd" clip-rule="evenodd" d="M17.112 27.4067C18.7936 26.2272 20.0749 24.4977 20.7653 22.4754C21.4558 20.453 21.5185 18.2459 20.9441 16.1823C20.3697 14.1187 19.189 12.3089 17.5775 11.022C15.966 9.73516 14.0098 9.04004 12 9.04004C9.99015 9.04004 8.034 9.73516 6.4225 11.022C4.811 12.3089 3.63026 14.1187 3.0559 16.1823C2.48153 18.2459 2.54424 20.453 3.23469 22.4754C3.92513 24.4977 5.20643 26.2272 6.888 27.4067C4.82857 28.446 3.08748 30.0915 1.86788 32.1509C0.648272 34.2104 0.000449459 36.5991 0 39.0381L0 40.4667H2.66667V39.0381C2.74851 36.4445 3.76769 33.9863 5.50909 32.1826C7.25049 30.3788 9.57787 29.3705 12 29.3705C14.4221 29.3705 16.7495 30.3788 18.4909 32.1826C20.2323 33.9863 21.2515 36.4445 21.3333 39.0381V40.4667H24V39.0381C23.9995 36.5991 23.3517 34.2104 22.1321 32.1509C20.9125 30.0915 19.1714 28.446 17.112 27.4067ZM12 26.181C10.2319 26.181 8.5362 25.4284 7.28595 24.0889C6.03571 22.7493 5.33333 20.9325 5.33333 19.0381C5.33333 17.1437 6.03571 15.3269 7.28595 13.9874C8.5362 12.6478 10.2319 11.8953 12 11.8953C13.7681 11.8953 15.4638 12.6478 16.714 13.9874C17.9643 15.3269 18.6667 17.1437 18.6667 19.0381C18.6667 20.9325 17.9643 22.7493 16.714 24.0889C15.4638 25.4284 13.7681 26.181 12 26.181Z" fill="black"/>
</svg>
