<svg width="40" height="42" viewBox="0 0 40 42" fill="none" xmlns="http://www.w3.org/2000/svg">
<path d="M19.0547 9.28879C19.1434 9.14957 19.2787 9.03266 19.4454 8.95098C19.6124 8.86931 19.8043 8.82608 20.0001 8.82608C20.1959 8.82608 20.3878 8.86931 20.5547 8.95098C20.7215 9.03266 20.8568 9.14957 20.9455 9.28879L23.1398 12.8199C23.2161 12.9413 23.328 13.0461 23.4663 13.1253C23.6047 13.2045 23.7649 13.2558 23.9334 13.2747L28.8576 13.8419C29.0504 13.8634 29.2321 13.9274 29.3817 14.0267C29.5316 14.126 29.6437 14.2566 29.7054 14.4039C29.7657 14.5502 29.7731 14.7072 29.7267 14.8568C29.6803 15.0063 29.5821 15.1424 29.4431 15.2495L25.8654 18.0163C25.7452 18.1091 25.6553 18.2239 25.603 18.3509C25.551 18.4776 25.5384 18.6127 25.5661 18.7443L26.4096 22.6437C26.4426 22.7962 26.4205 22.9531 26.3461 23.0961C26.2715 23.2391 26.1477 23.3622 25.989 23.4512C25.8294 23.5422 25.6414 23.596 25.4458 23.6067C25.25 23.6174 25.0546 23.5846 24.8809 23.5118L20.4923 21.6822C20.3405 21.6183 20.1716 21.5849 20.0001 21.5849C19.8286 21.5849 19.6596 21.6183 19.5079 21.6822L15.1192 23.5118C14.9456 23.5846 14.7501 23.6174 14.5544 23.6067C14.3588 23.596 14.1707 23.5422 14.0112 23.4512C13.8524 23.3622 13.7287 23.2391 13.6542 23.0961C13.5797 22.9531 13.5577 22.7962 13.5905 22.6437L14.434 18.7443C14.4619 18.6127 14.4492 18.4776 14.3971 18.3509C14.345 18.2239 14.2549 18.1091 14.1348 18.0163L10.5571 15.2495C10.4181 15.1424 10.3198 15.0063 10.2734 14.8568C10.227 14.7072 10.2344 14.5502 10.2947 14.4039C10.3565 14.2566 10.4686 14.126 10.6184 14.0267C10.7681 13.9274 10.9497 13.8634 11.1425 13.8419L16.0667 13.2747C16.2352 13.2558 16.3957 13.2045 16.5338 13.1253C16.6721 13.0461 16.784 12.9413 16.8604 12.8199L19.0547 9.28879Z" stroke="black" stroke-width="1.5" stroke-linecap="round" stroke-linejoin="round"/>
<path d="M39 16.998C38.9994 13.9705 37.9786 11.0053 36.0567 8.4467C34.1349 5.88815 31.3905 3.84128 28.1423 2.54384C24.8944 1.24638 21.276 0.751599 17.7071 1.11694C14.1386 1.48228 10.7662 2.69276 7.98184 4.60779C5.19746 6.52281 3.11533 9.0638 1.97725 11.9356C0.839173 14.8075 0.69186 17.8923 1.55243 20.8318C2.41299 23.7712 4.24613 26.4449 6.83891 28.5421C9.43169 30.6392 12.6777 32.0738 16.2 32.6793L20 41L23.8 32.6793C28.0917 31.9415 31.9487 29.9778 34.7187 27.1201C37.4884 24.2626 39.0008 20.6869 39 16.998Z" stroke="black" stroke-width="1.5" stroke-linecap="round" stroke-linejoin="round"/>
</svg>
