<svg width="41" height="42" viewBox="0 0 41 42" fill="none" xmlns="http://www.w3.org/2000/svg">
<path d="M34.3462 14.8462C34.3462 24.0769 20.5001 34.8462 20.5001 34.8462C20.5001 34.8462 6.65393 24.0769 6.65393 14.8462C6.65393 7.30462 12.9585 1 20.5001 1C28.0416 1 34.3462 7.30462 34.3462 14.8462Z" stroke="black" stroke-linecap="round" stroke-linejoin="round"/>
<path d="M20.5 19.4615C23.049 19.4615 25.1154 17.3952 25.1154 14.8461C25.1154 12.2971 23.049 10.2308 20.5 10.2308C17.951 10.2308 15.8846 12.2971 15.8846 14.8461C15.8846 17.3952 17.951 19.4615 20.5 19.4615Z" stroke="black" stroke-linecap="round" stroke-linejoin="round"/>
<path d="M33.0455 30.2308H35.8846L40.5 41H0.5L5.11538 30.2308H7.95446" stroke="black" stroke-linecap="round" stroke-linejoin="round"/>
</svg>
